<svg width="171" height="38" viewBox="0 0 171 38" fill="none" xmlns="http://www.w3.org/2000/svg">
<rect x="13" width="8.95669" height="8.95669" transform="rotate(45 13 0)" fill="#2D2888"/>
<rect x="6.66602" y="6.33398" width="8.95669" height="8.95669" transform="rotate(45 6.66602 6.33398)" fill="#2D2888"/>
<rect x="13" y="12.667" width="8.95669" height="8.95669" transform="rotate(45 13 12.667)" fill="#181051"/>
<rect x="25.666" y="12.667" width="8.95669" height="8.95669" transform="rotate(45 25.666 12.667)" fill="#5353AF"/>
<rect x="6.66602" y="19" width="8.95669" height="8.95669" transform="rotate(45 6.66602 19)" fill="#5353AF"/>
<rect x="13" y="25.334" width="8.95669" height="8.95669" transform="rotate(45 13 25.334)" fill="#9B9CE8"/>
<path d="M43.1504 10.8201V14.0401H56.7204V10.8201H43.1504ZM46.3704 19.5141H55.3634V16.2941H46.3704L43.1504 16.2711V26.0001H56.7204V22.7801H46.3704V19.5141Z" fill="white"/>
<path d="M72.7383 17.3751C72.4853 15.5811 71.6113 13.9251 70.2543 12.7291C69.0123 11.6251 67.4253 10.9581 65.7923 10.8431L59.0303 10.8201V14.0401H65.4013C65.6313 14.0631 65.8613 14.0861 66.0683 14.1321C66.7123 14.2701 67.3103 14.5461 67.8393 14.9371C68.7133 15.5811 69.2883 16.5241 69.5183 17.5821C69.5643 17.8581 69.5873 18.1571 69.5873 18.4331C69.5873 18.7551 69.5643 19.0541 69.4953 19.3531C69.1273 21.1241 67.6783 22.5041 65.8843 22.7801H62.2503V16.2941H59.0303V26.0001H66.1373C69.5183 25.5861 72.2553 22.9411 72.7383 19.5601C72.7843 19.1921 72.8303 18.8241 72.8303 18.4331C72.8303 18.0881 72.8073 17.7201 72.7383 17.3751Z" fill="white"/>
<path d="M80.035 16.3171L80.426 17.1911L81.346 19.1921L81.53 19.5601H85.279V22.7801H81.208C78.977 22.4581 77.298 20.5951 77.298 18.4331C77.298 16.2481 78.977 14.3851 81.208 14.0631H88.476V10.8431H81.875C79.805 10.8431 77.873 11.6251 76.424 13.0281C74.929 14.4771 74.124 16.3861 74.124 18.4331C74.124 20.4801 74.929 22.3891 76.424 23.8151C77.873 25.2411 79.805 26.0001 81.875 26.0001H88.522V16.3171H80.035Z" fill="white"/>
<path d="M90.8125 10.8201V14.0401H104.382V10.8201H90.8125ZM94.0325 19.5141H103.026V16.2941H94.0325L90.8125 16.2711V26.0001H104.382V22.7801H94.0325V19.5141Z" fill="white"/>
<path d="M109.707 10.8201H105.682L106.119 11.6021L111.087 20.5951L113.111 16.9611L109.707 10.8201ZM119.091 10.8201L118.976 11.0271L115.457 17.3981L114.79 18.5941L114.399 19.2841L112.375 22.9181L114.008 26.0001H114.859L122.702 11.6021L123.139 10.8201H119.091Z" fill="white"/>
<path d="M119.372 25.1031L118.889 26.0001H122.937L123.098 25.7011L126.387 19.7441L124.363 16.1101L119.372 25.1031ZM135.978 25.1031L129.538 13.4881L128.204 11.0961L128.066 10.7741H127.284L127.123 11.0961L125.812 13.4881L125.651 13.7871L127.675 17.4441L127.721 17.5361L132.252 25.7011L132.413 26.0001H136.461L135.978 25.1031Z" fill="white"/>
<path d="M138.317 26.0001H141.537V20.8711L138.317 17.6511V26.0001ZM147.402 10.7971V18.9851L139.099 10.7051H138.317V14.4771L149.84 26.0001H150.622V10.7971H147.402Z" fill="white"/>
<path d="M152.389 25.1031L151.906 26.0001H155.954L156.115 25.7011L159.404 19.7441L157.38 16.1101L152.389 25.1031ZM168.995 25.1031L162.555 13.4881L161.221 11.0961L161.083 10.7741H160.301L160.14 11.0961L158.829 13.4881L158.668 13.7871L160.692 17.4441L160.738 17.5361L165.269 25.7011L165.43 26.0001H169.478L168.995 25.1031Z" fill="white"/>
</svg>
