<svg width="27" height="27" viewBox="0 0 24 24" fill="none" xmlns="http://www.w3.org/2000/svg">
<g clip-path="url(#clip0_22_2504)">
<path opacity="0.56" d="M12.0512 21.949C9.48722 21.9468 7.02203 20.9598 5.16494 19.192C3.30784 17.4241 2.20075 15.0105 2.07239 12.4497C1.94402 9.88891 2.80419 7.37665 4.47517 5.43194C6.14616 3.48723 8.5003 2.25866 11.0512 2.00005V6.04005C9.96652 6.22355 8.95324 6.70204 8.12238 7.42309C7.29151 8.14414 6.67512 9.07995 6.3407 10.128C6.00629 11.1761 5.96676 12.2959 6.22644 13.365C6.48613 14.434 7.03501 15.4109 7.81296 16.1888C8.59092 16.9666 9.56794 17.5154 10.637 17.7749C11.7061 18.0344 12.8259 17.9947 13.8739 17.6602C14.9219 17.3256 15.8577 16.7091 16.5786 15.8781C17.2995 15.0471 17.7779 14.0338 17.9612 12.949H22.0002C21.7491 15.4144 20.5928 17.6991 18.755 19.3614C16.9172 21.0238 14.5283 21.9457 12.0502 21.949H12.0512ZM22.0012 10.949H17.9612C17.7536 9.72237 17.1693 8.59072 16.2895 7.71108C15.4097 6.83144 14.2779 6.24742 13.0512 6.04005V2.00005C15.3446 2.23462 17.487 3.25267 19.1173 4.88261C20.7476 6.51256 21.7661 8.65472 22.0012 10.948V10.949V10.949Z" fill="#151F4E" fill-opacity="0.56"/>
</g>
<defs>
<clipPath id="clip0_22_2504">
<rect width="24" height="24" fill="white"/>
</clipPath>
</defs>
</svg>
