<svg width="27" height="27" viewBox="0 0 24 24" fill="none" xmlns="http://www.w3.org/2000/svg">
<g clip-path="url(#clip0_97_59)">
<path d="M12.0512 21.949C9.48722 21.9468 7.02203 20.9598 5.16494 19.192C3.30784 17.4241 2.20075 15.0105 2.07239 12.4497C1.94402 9.8889 2.80419 7.37664 4.47517 5.43192C6.14616 3.48721 8.5003 2.25864 11.0512 2.00003V6.04003C9.96652 6.22354 8.95324 6.70202 8.12238 7.42308C7.29151 8.14413 6.67512 9.07994 6.3407 10.128C6.00629 11.176 5.96676 12.2959 6.22644 13.3649C6.48613 14.434 7.03501 15.4109 7.81296 16.1888C8.59092 16.9666 9.56794 17.5153 10.637 17.7749C11.7061 18.0344 12.8259 17.9947 13.8739 17.6601C14.9219 17.3256 15.8577 16.709 16.5786 15.8781C17.2995 15.0471 17.7779 14.0338 17.9612 12.949H22.0002C21.7491 15.4144 20.5928 17.6991 18.755 19.3614C16.9172 21.0238 14.5283 21.9457 12.0502 21.949H12.0512ZM22.0012 10.949H17.9612C17.7536 9.72236 17.1693 8.5907 16.2895 7.71107C15.4097 6.83143 14.2779 6.24741 13.0512 6.04003V2.00003C15.3446 2.2346 17.487 3.25266 19.1173 4.8826C20.7476 6.51254 21.7661 8.6547 22.0012 10.948V10.949V10.949Z" fill="white"/>
</g>
<defs>
<clipPath id="clip0_97_59">
<rect width="24" height="24" fill="white"/>
</clipPath>
</defs>
</svg>
