<svg width="24" height="24" viewBox="0 0 21 20" fill="none" xmlns="http://www.w3.org/2000/svg">
<path opacity="0.56" d="M10.0512 19.949C7.48722 19.9468 5.02203 18.9598 3.16494 17.192C1.30784 15.4241 0.200755 13.0105 0.0723883 10.4497C-0.0559783 7.88891 0.804186 5.37665 2.47517 3.43194C4.14616 1.48723 6.5003 0.258657 9.05122 4.57764e-05V4.04005C7.96652 4.22355 6.95324 4.70204 6.12238 5.42309C5.29151 6.14414 4.67512 7.07995 4.3407 8.12801C4.00629 9.17606 3.96676 10.2959 4.22644 11.365C4.48613 12.434 5.03501 13.4109 5.81296 14.1888C6.59092 14.9666 7.56794 15.5154 8.637 15.7749C9.70607 16.0344 10.8259 15.9947 11.8739 15.6602C12.9219 15.3256 13.8577 14.7091 14.5786 13.8781C15.2995 13.0471 15.7779 12.0338 15.9612 10.949H20.0002C19.7491 13.4144 18.5928 15.6991 16.755 17.3614C14.9172 19.0238 12.5283 19.9457 10.0502 19.949H10.0512ZM20.0012 8.94905H15.9612C15.7536 7.72237 15.1693 6.59072 14.2895 5.71108C13.4097 4.83144 12.2779 4.24742 11.0512 4.04005V4.57764e-05C13.3446 0.234619 15.487 1.25267 17.1173 2.88261C18.7476 4.51256 19.7661 6.65472 20.0012 8.94805V8.94905V8.94905Z" fill="white"/>
</svg>
