<svg width="36" height="36" viewBox="0 0 36 36" fill="none" xmlns="http://www.w3.org/2000/svg">
<path d="M19.5 23H16.5C15.675 23 15 22.325 15 21.5H4.515V27.5C4.515 29.15 5.865 30.5 7.515 30.5H28.5C30.15 30.5 31.5 29.15 31.5 27.5V21.5H21C21 22.325 20.325 23 19.5 23ZM30 9.5H24C24 6.185 21.315 3.5 18 3.5C14.685 3.5 12 6.185 12 9.5H6C4.35 9.5 3 10.85 3 12.5V17C3 18.665 4.335 20 6 20H15V18.5C15 17.675 15.675 17 16.5 17H19.5C20.325 17 21 17.675 21 18.5V20H30C31.65 20 33 18.65 33 17V12.5C33 10.85 31.65 9.5 30 9.5ZM15 9.5C15 7.85 16.35 6.5 18 6.5C19.65 6.5 21 7.85 21 9.5H14.985H15Z" fill="url(#paint0_linear_20_2458)"/>
<path d="M19.5 23H16.5C15.675 23 15 22.325 15 21.5H4.515V27.5C4.515 29.15 5.865 30.5 7.515 30.5H28.5C30.15 30.5 31.5 29.15 31.5 27.5V21.5H21C21 22.325 20.325 23 19.5 23ZM30 9.5H24C24 6.185 21.315 3.5 18 3.5C14.685 3.5 12 6.185 12 9.5H6C4.35 9.5 3 10.85 3 12.5V17C3 18.665 4.335 20 6 20H15V18.5C15 17.675 15.675 17 16.5 17H19.5C20.325 17 21 17.675 21 18.5V20H30C31.65 20 33 18.65 33 17V12.5C33 10.85 31.65 9.5 30 9.5ZM15 9.5C15 7.85 16.35 6.5 18 6.5C19.65 6.5 21 7.85 21 9.5H14.985H15Z" fill="url(#paint1_linear_20_2458)"/>
<defs>
<linearGradient id="paint0_linear_20_2458" x1="34.3866" y1="0.384639" x2="1.40116" y2="2.25159" gradientUnits="userSpaceOnUse">
<stop stop-color="#5970E0"/>
<stop offset="1" stop-color="#462EDF"/>
</linearGradient>
<linearGradient id="paint1_linear_20_2458" x1="32.8969" y1="0.384638" x2="2.89352" y2="1.92843" gradientUnits="userSpaceOnUse">
<stop stop-color="#5970E0"/>
<stop offset="1" stop-color="#1C37B8"/>
</linearGradient>
</defs>
</svg>
