<svg width="22" height="20" viewBox="0 0 22 20" fill="none" xmlns="http://www.w3.org/2000/svg">
<path d="M17.8548 14.4531C16.1822 14.8832 14.4095 14.8253 12.7728 14.2871C11.1362 13.7488 9.71343 12.7558 8.69398 11.4404C7.67453 10.1249 7.10684 8.54946 7.06656 6.9239C7.02627 5.29835 7.5153 3.69988 8.46848 2.34146C7.13696 2.6834 5.91381 3.32308 4.90395 4.2056C3.89409 5.08813 3.12767 6.18716 2.67045 7.4084C2.21323 8.62965 2.07886 9.93665 2.27887 11.2173C2.47887 12.4979 3.00728 13.7139 3.81876 14.761C4.63024 15.8081 5.70056 16.6551 6.93791 17.2291C8.17525 17.8032 9.54268 18.0873 10.9229 18.057C12.3031 18.0267 13.6548 17.683 14.8622 17.0553C16.0695 16.4276 17.0964 15.5347 17.8548 14.4531V14.4531Z" fill="#4B516A"/>
</svg>
