<svg width="24" height="24" viewBox="0 0 24 24" fill="none" xmlns="http://www.w3.org/2000/svg">
<g clip-path="url(#clip0_97_46)">
<path d="M9.49986 1.09094H2.68167C1.80443 1.09094 1.09082 1.80455 1.09082 2.6818V6.77271C1.09082 7.65011 1.80443 8.36373 2.68167 8.36373H9.49986C10.3773 8.36373 11.0909 7.65011 11.0909 6.77271V2.6818C11.0909 1.80455 10.3773 1.09094 9.49986 1.09094Z" fill="white"/>
<path d="M9.50004 10.1817H2.68185C1.80461 10.1817 1.091 10.8953 1.091 11.7728V21.3182C1.091 22.1954 1.80461 22.9091 2.68185 22.9091H9.50004C10.3774 22.9091 11.0911 22.1954 11.0911 21.3182V11.7728C11.0911 10.8953 10.3774 10.1817 9.50004 10.1817V10.1817Z" fill="white"/>
<path d="M21.318 15.6363H14.4998C13.6224 15.6363 12.9088 16.3499 12.9088 17.2273V21.3182C12.9088 22.1955 13.6224 22.9091 14.4998 22.9091H21.318C22.1953 22.9091 22.9089 22.1955 22.9089 21.3182V17.2273C22.9089 16.3499 22.1953 15.6363 21.318 15.6363V15.6363Z" fill="white"/>
<path d="M21.318 1.09091H14.4998C13.6224 1.09091 12.9088 1.80452 12.9088 2.68177V12.2272C12.9088 13.1046 13.6224 13.8182 14.4998 13.8182H21.318C22.1953 13.8182 22.9089 13.1046 22.9089 12.2272V2.68177C22.9089 1.80452 22.1953 1.09091 21.318 1.09091V1.09091Z" fill="white"/>
</g>
<defs>
<clipPath id="clip0_97_46">
<rect width="21.8182" height="21.8182" fill="white" transform="translate(1.09082 1.09094)"/>
</clipPath>
</defs>
</svg>
