<svg width="24" height="24" viewBox="0 0 24 24" fill="none" xmlns="http://www.w3.org/2000/svg">
<g opacity="0.64">
<g clip-path="url(#clip0_20_2480)">
<path d="M9.49986 1.09095H2.68167C1.80443 1.09095 1.09082 1.80457 1.09082 2.68181V6.77272C1.09082 7.65012 1.80443 8.36374 2.68167 8.36374H9.49986C10.3773 8.36374 11.0909 7.65012 11.0909 6.77272V2.68181C11.0909 1.80457 10.3773 1.09095 9.49986 1.09095Z" fill="#151F4E" fill-opacity="0.56"/>
<path d="M9.50004 10.1818H2.68185C1.80461 10.1818 1.091 10.8954 1.091 11.7728V21.3182C1.091 22.1955 1.80461 22.9091 2.68185 22.9091H9.50004C10.3774 22.9091 11.0911 22.1955 11.0911 21.3182V11.7728C11.0911 10.8954 10.3774 10.1818 9.50004 10.1818V10.1818Z" fill="#151F4E" fill-opacity="0.56"/>
<path d="M21.318 15.6363H14.4998C13.6224 15.6363 12.9088 16.3499 12.9088 17.2273V21.3182C12.9088 22.1955 13.6224 22.9091 14.4998 22.9091H21.318C22.1953 22.9091 22.9089 22.1955 22.9089 21.3182V17.2273C22.9089 16.3499 22.1953 15.6363 21.318 15.6363V15.6363Z" fill="#151F4E" fill-opacity="0.56"/>
<path d="M21.318 1.09093H14.4998C13.6224 1.09093 12.9088 1.80454 12.9088 2.68178V12.2272C12.9088 13.1046 13.6224 13.8183 14.4998 13.8183H21.318C22.1953 13.8183 22.9089 13.1046 22.9089 12.2272V2.68178C22.9089 1.80454 22.1953 1.09093 21.318 1.09093V1.09093Z" fill="#151F4E" fill-opacity="0.56"/>
</g>
</g>
<defs>
<clipPath id="clip0_20_2480">
<rect width="21.8182" height="21.8182" fill="white" transform="translate(1.09082 1.09095)"/>
</clipPath>
</defs>
</svg>
