<svg width="27" height="27" viewBox="0 0 24 24" fill="none" xmlns="http://www.w3.org/2000/svg">
<g clip-path="url(#clip0_21_2497)">
<path opacity="0.72" d="M8.31871 9.16922L11.6896 7.21376C11.7849 7.16148 11.8918 7.13408 12.0005 7.13408C12.1092 7.13408 12.2161 7.16148 12.3114 7.21376L15.6823 9.16922L12.0005 11.2883L8.31871 9.16922ZM11.3869 12.3519L7.70507 10.2247V14.1274C7.70539 14.2346 7.73344 14.3399 7.78648 14.4331C7.83953 14.5263 7.91577 14.6042 8.0078 14.6592L11.3869 16.6065V12.3519ZM12.6142 12.3519V16.6065L15.9933 14.6592C16.0853 14.6042 16.1615 14.5263 16.2146 14.4331C16.2676 14.3399 16.2957 14.2346 16.296 14.1274V10.2247L12.6142 12.3519ZM21.8596 13.7838C21.5988 15.1941 21.041 16.5328 20.2233 17.711C20.3922 17.996 20.4825 18.3207 20.4851 18.6519C20.4851 19.1402 20.2911 19.6084 19.9459 19.9537C19.6006 20.2989 19.1324 20.4929 18.6442 20.4929C18.3212 20.486 18.0056 20.3958 17.7278 20.231C16.5496 21.0488 15.2108 21.6066 13.8005 21.8674C13.6993 22.2636 13.4691 22.6149 13.1461 22.8657C12.8231 23.1165 12.4258 23.2527 12.0169 23.2527C11.608 23.2527 11.2107 23.1165 10.8877 22.8657C10.5647 22.6149 10.3345 22.2636 10.2333 21.8674C8.82293 21.6066 7.48422 21.0488 6.30598 20.231C6.021 20.4 5.69634 20.4903 5.36507 20.4929C4.87683 20.4929 4.40859 20.2989 4.06335 19.9537C3.71811 19.6084 3.52416 19.1402 3.52416 18.6519C3.5246 18.3277 3.60918 18.0092 3.76961 17.7274C2.95184 16.5492 2.39404 15.2104 2.13325 13.8001C1.73704 13.6989 1.3858 13.4687 1.13496 13.1457C0.884121 12.8227 0.747959 12.4254 0.747959 12.0165C0.747959 11.6076 0.884121 11.2103 1.13496 10.8873C1.3858 10.5643 1.73704 10.3341 2.13325 10.2329C2.39404 8.82254 2.95184 7.48382 3.76961 6.30558C3.6007 6.02061 3.51035 5.69594 3.5078 5.36467C3.50619 5.12273 3.55316 4.88293 3.64592 4.65948C3.73867 4.43602 3.87533 4.23345 4.0478 4.06376C4.34355 3.78991 4.71941 3.61825 5.12005 3.57406C5.52069 3.52987 5.92493 3.61549 6.27325 3.81831C7.44841 2.99491 8.78839 2.43659 10.2005 2.18195C10.3017 1.78573 10.532 1.43449 10.855 1.18365C11.1779 0.932815 11.5752 0.796654 11.9842 0.796654C12.3931 0.796654 12.7904 0.932815 13.1134 1.18365C13.4363 1.43449 13.6666 1.78573 13.7678 2.18195C15.1913 2.43204 16.5429 2.99055 17.7278 3.81831C18.0808 3.61605 18.4896 3.53308 18.8935 3.58172C19.2973 3.63037 19.6748 3.80803 19.9696 4.08831C20.1421 4.25799 20.2787 4.46056 20.3715 4.68402C20.4643 4.90748 20.5112 5.14728 20.5096 5.38922C20.4923 5.70241 20.3967 6.00624 20.2314 6.27285C21.0492 7.4511 21.607 8.78981 21.8678 10.2001C22.264 10.3013 22.6152 10.5316 22.8661 10.8546C23.1169 11.1775 23.2531 11.5748 23.2531 11.9838C23.2531 12.3927 23.1169 12.79 22.8661 13.113C22.6152 13.4359 22.264 13.6662 21.8678 13.7674L21.8596 13.7838ZM19.2742 16.9092C19.9452 15.9223 20.4074 14.8086 20.6323 13.6365C20.3135 13.4915 20.0431 13.2578 19.8535 12.9633C19.6638 12.6687 19.563 12.3259 19.563 11.9756C19.563 11.6253 19.6638 11.2824 19.8535 10.9879C20.0431 10.6934 20.3135 10.4597 20.6323 10.3147C20.4101 9.14314 19.9507 8.02942 19.2823 7.04194C19.0809 7.11764 18.8675 7.15645 18.6523 7.15649C18.1641 7.15649 17.6959 6.96254 17.3506 6.6173C17.0054 6.27206 16.8114 5.80382 16.8114 5.31558C16.8101 5.11236 16.8433 4.91039 16.9096 4.71831C15.9221 4.04992 14.8084 3.59051 13.6369 3.36831C13.4919 3.68718 13.2582 3.95757 12.9637 4.14719C12.6691 4.33681 12.3263 4.43764 11.976 4.43764C11.6257 4.43764 11.2828 4.33681 10.9883 4.14719C10.6938 3.95757 10.4601 3.68718 10.3151 3.36831C9.16064 3.59685 8.06421 4.05602 7.09143 4.71831C7.16713 4.91973 7.20593 5.13313 7.20598 5.34831C7.20598 5.83655 7.01203 6.30479 6.66679 6.65003C6.32155 6.99527 5.85331 7.18922 5.36507 7.18922C5.14542 7.19641 4.92632 7.16313 4.71871 7.09104C4.05032 8.07852 3.59091 9.19224 3.3687 10.3638C3.68757 10.5088 3.95797 10.7425 4.14759 11.037C4.33721 11.3315 4.43804 11.6744 4.43804 12.0247C4.43804 12.375 4.33721 12.7178 4.14759 13.0124C3.95797 13.3069 3.68757 13.5406 3.3687 13.6856C3.59362 14.8577 4.05581 15.9714 4.72689 16.9583C5.00245 16.8549 5.29902 16.82 5.59106 16.8566C5.8831 16.8932 6.16187 17.0003 6.40337 17.1685C6.64487 17.3368 6.84187 17.5612 6.97741 17.8224C7.11295 18.0837 7.18296 18.374 7.18143 18.6683C7.18139 18.8835 7.14259 19.0969 7.06689 19.2983C8.05437 19.9667 9.16809 20.4261 10.3396 20.6483C10.4846 20.3294 10.7183 20.059 11.0128 19.8694C11.3074 19.6798 11.6502 19.579 12.0005 19.579C12.3508 19.579 12.6937 19.6798 12.9882 19.8694C13.2827 20.059 13.5164 20.3294 13.6614 20.6483C14.833 20.4261 15.9467 19.9667 16.9342 19.2983C16.8585 19.0969 16.8197 18.8835 16.8196 18.6683C16.8181 18.374 16.8881 18.0837 17.0236 17.8224C17.1592 17.5612 17.3562 17.3368 17.5977 17.1685C17.8392 17.0003 18.1179 16.8932 18.41 16.8566C18.702 16.82 18.9986 16.8549 19.2742 16.9583V16.9092Z" fill="#151F4E" fill-opacity="0.56"/>
</g>
<defs>
<clipPath id="clip0_21_2497">
<rect width="24" height="24" fill="white"/>
</clipPath>
</defs>
</svg>
