<svg width="27" height="27" viewBox="0 0 24 24" fill="none" xmlns="http://www.w3.org/2000/svg">
<g clip-path="url(#clip0_97_50)">
<path d="M8.3187 9.16922L11.6896 7.21377C11.7849 7.16149 11.8918 7.13408 12.0005 7.13408C12.1092 7.13408 12.2161 7.16149 12.3114 7.21377L15.6823 9.16922L12.0005 11.2883L8.3187 9.16922ZM11.3869 12.352L7.70507 10.2247V14.1274C7.70539 14.2346 7.73344 14.3399 7.78648 14.4331C7.83953 14.5263 7.91577 14.6042 8.0078 14.6592L11.3869 16.6065V12.352ZM12.6142 12.352V16.6065L15.9932 14.6592C16.0853 14.6042 16.1615 14.5263 16.2146 14.4331C16.2676 14.3399 16.2957 14.2346 16.296 14.1274V10.2247L12.6142 12.352ZM21.8596 13.7838C21.5988 15.1941 21.041 16.5328 20.2233 17.711C20.3922 17.996 20.4825 18.3207 20.4851 18.652C20.4851 19.1402 20.2911 19.6084 19.9459 19.9537C19.6006 20.2989 19.1324 20.4929 18.6442 20.4929C18.3212 20.486 18.0056 20.3958 17.7278 20.231C16.5496 21.0488 15.2108 21.6066 13.8005 21.8674C13.6993 22.2636 13.4691 22.6149 13.1461 22.8657C12.8231 23.1165 12.4258 23.2527 12.0169 23.2527C11.6079 23.2527 11.2107 23.1165 10.8877 22.8657C10.5647 22.6149 10.3345 22.2636 10.2333 21.8674C8.82293 21.6066 7.48422 21.0488 6.30598 20.231C6.021 20.4 5.69633 20.4903 5.36507 20.4929C4.87683 20.4929 4.40859 20.2989 4.06335 19.9537C3.71811 19.6084 3.52416 19.1402 3.52416 18.652C3.5246 18.3277 3.60918 18.0092 3.76961 17.7274C2.95184 16.5492 2.39404 15.2105 2.13325 13.8001C1.73704 13.6989 1.3858 13.4687 1.13496 13.1457C0.88412 12.8227 0.747958 12.4254 0.747958 12.0165C0.747958 11.6076 0.88412 11.2103 1.13496 10.8873C1.3858 10.5643 1.73704 10.3341 2.13325 10.2329C2.39404 8.82254 2.95184 7.48383 3.76961 6.30559C3.60069 6.02061 3.51035 5.69595 3.50779 5.36468C3.50619 5.12274 3.55316 4.88294 3.64592 4.65948C3.73867 4.43603 3.87533 4.23346 4.0478 4.06377C4.34354 3.78992 4.71941 3.61826 5.12005 3.57407C5.52069 3.52988 5.92493 3.6155 6.27325 3.81832C7.44841 2.99492 8.78839 2.4366 10.2005 2.18195C10.3017 1.78574 10.532 1.4345 10.855 1.18366C11.1779 0.932823 11.5752 0.796661 11.9842 0.796661C12.3931 0.796661 12.7904 0.932823 13.1134 1.18366C13.4363 1.4345 13.6666 1.78574 13.7678 2.18195C15.1913 2.43205 16.5429 2.99056 17.7278 3.81832C18.0808 3.61606 18.4896 3.53309 18.8935 3.58173C19.2973 3.63038 19.6748 3.80804 19.9696 4.08832C20.1421 4.258 20.2787 4.46057 20.3715 4.68403C20.4642 4.90749 20.5112 5.14729 20.5096 5.38923C20.4923 5.70241 20.3967 6.00624 20.2314 6.27286C21.0492 7.4511 21.607 8.78982 21.8678 10.2001C22.264 10.3013 22.6152 10.5316 22.8661 10.8546C23.1169 11.1775 23.2531 11.5748 23.2531 11.9838C23.2531 12.3927 23.1169 12.79 22.8661 13.113C22.6152 13.4359 22.264 13.6662 21.8678 13.7674L21.8596 13.7838ZM19.2742 16.9092C19.9452 15.9223 20.4074 14.8086 20.6323 13.6365C20.3135 13.4915 20.0431 13.2578 19.8535 12.9633C19.6638 12.6688 19.563 12.3259 19.563 11.9756C19.563 11.6253 19.6638 11.2824 19.8535 10.9879C20.0431 10.6934 20.3135 10.4597 20.6323 10.3147C20.4101 9.14315 19.9507 8.02943 19.2823 7.04195C19.0809 7.11765 18.8675 7.15645 18.6523 7.1565C18.1641 7.1565 17.6959 6.96255 17.3506 6.61731C17.0054 6.27207 16.8114 5.80383 16.8114 5.31559C16.8101 5.11237 16.8433 4.9104 16.9096 4.71832C15.9221 4.04993 14.8084 3.59052 13.6369 3.36832C13.4919 3.68718 13.2582 3.95758 12.9637 4.1472C12.6691 4.33682 12.3263 4.43765 11.976 4.43765C11.6257 4.43765 11.2828 4.33682 10.9883 4.1472C10.6938 3.95758 10.4601 3.68718 10.3151 3.36832C9.16064 3.59686 8.06421 4.05603 7.09143 4.71832C7.16713 4.91974 7.20593 5.13314 7.20598 5.34832C7.20598 5.83656 7.01202 6.3048 6.66679 6.65004C6.32155 6.99527 5.85331 7.18923 5.36507 7.18923C5.14542 7.19641 4.92631 7.16313 4.7187 7.09104C4.05032 8.07852 3.59091 9.19224 3.3687 10.3638C3.68757 10.5088 3.95796 10.7425 4.14758 11.037C4.3372 11.3315 4.43804 11.6744 4.43804 12.0247C4.43804 12.375 4.3372 12.7178 4.14758 13.0124C3.95796 13.3069 3.68757 13.5406 3.3687 13.6856C3.59362 14.8577 4.05581 15.9714 4.72689 16.9583C5.00245 16.8549 5.29901 16.82 5.59106 16.8566C5.8831 16.8932 6.16187 17.0003 6.40337 17.1685C6.64487 17.3368 6.84187 17.5612 6.97741 17.8224C7.11295 18.0837 7.18296 18.374 7.18143 18.6683C7.18139 18.8835 7.14259 19.0969 7.06689 19.2983C8.05437 19.9667 9.16809 20.4261 10.3396 20.6483C10.4846 20.3294 10.7183 20.0591 11.0128 19.8694C11.3074 19.6798 11.6502 19.579 12.0005 19.579C12.3508 19.579 12.6937 19.6798 12.9882 19.8694C13.2827 20.0591 13.5164 20.3294 13.6614 20.6483C14.833 20.4261 15.9467 19.9667 16.9342 19.2983C16.8585 19.0969 16.8197 18.8835 16.8196 18.6683C16.8181 18.374 16.8881 18.0837 17.0236 17.8224C17.1592 17.5612 17.3562 17.3368 17.5977 17.1685C17.8392 17.0003 18.1179 16.8932 18.41 16.8566C18.702 16.82 18.9986 16.8549 19.2742 16.9583V16.9092Z" fill="white"/>
</g>
<defs>
<clipPath id="clip0_97_50">
<rect width="24" height="24" fill="white"/>
</clipPath>
</defs>
</svg>
