<svg width="20" height="20" viewBox="0 0 20 20" fill="none" xmlns="http://www.w3.org/2000/svg">
<path fill-rule="evenodd" clip-rule="evenodd" d="M10 3.58325C6.83943 3.58325 4.57497 4.98935 3.11556 6.44854C2.38827 7.17573 1.85557 7.92041 1.50169 8.52317C1.32485 8.82438 1.1889 9.09654 1.09452 9.32015C1.04758 9.43138 1.00777 9.53802 0.978338 9.63528C0.955048 9.71224 0.916687 9.85042 0.916687 9.99825C0.916687 10.1461 0.955048 10.2843 0.978338 10.3612C1.00777 10.4585 1.04758 10.5651 1.09452 10.6764C1.1889 10.9 1.32485 11.1721 1.50169 11.4733C1.85557 12.0761 2.38827 12.8208 3.11556 13.548C4.57497 15.0072 6.83943 16.4133 10 16.4133C13.1606 16.4133 15.4251 15.0072 16.8845 13.548C17.6118 12.8208 18.1445 12.0761 18.4984 11.4733C18.6752 11.1721 18.8111 10.9 18.9055 10.6764C18.9525 10.5651 18.9923 10.4585 19.0217 10.3612C19.045 10.2843 19.0834 10.1461 19.0834 9.99825C19.0834 9.85042 19.045 9.71224 19.0217 9.63528C18.9923 9.53802 18.9525 9.43138 18.9055 9.32015C18.8111 9.09654 18.6752 8.82438 18.4984 8.52317C18.1445 7.92041 17.6118 7.17573 16.8845 6.44854C15.4251 4.98935 13.1606 3.58325 10 3.58325ZM9.99994 8.25C9.03344 8.25 8.24994 9.0335 8.24994 10C8.24994 10.9665 9.03344 11.75 9.99994 11.75C10.9664 11.75 11.7499 10.9665 11.7499 10C11.7499 9.0335 10.9664 8.25 9.99994 8.25ZM6.74994 10C6.74994 8.20507 8.20501 6.75 9.99994 6.75C11.7949 6.75 13.2499 8.20507 13.2499 10C13.2499 11.7949 11.7949 13.25 9.99994 13.25C8.20501 13.25 6.74994 11.7949 6.74994 10Z" fill="#838AA9"/>
</svg>
