<svg width="36" height="36" viewBox="0 0 36 36" fill="none" xmlns="http://www.w3.org/2000/svg">
<path d="M8 31H28V26.3571C27.9981 24.6338 27.327 22.9817 26.134 21.7631C24.941 20.5446 22.4144 19.8591 20.7273 19.8571H15.2727C13.5856 19.8591 11.059 20.5446 9.86599 21.7631C8.673 22.9817 8.00192 24.6338 8 26.3571V31ZM11.6364 11.5C11.6364 12.7856 11.8462 14.1454 12.5455 15.2143C13.2447 16.2832 14.1099 17.0437 15.2727 17.5357C16.4355 18.0277 18.0071 18.1259 19.2415 17.8751C20.4759 17.6243 21.6098 17.0052 22.4998 16.0962C23.3897 15.1872 23.9958 14.029 24.2414 12.7681C24.4869 11.5072 24.3609 10.2003 23.8792 9.01256C23.3976 7.82484 22.5819 6.80968 21.5354 6.09545C20.489 5.38122 19.2586 5 18 5C16.3123 5 14.6936 5.68482 13.5002 6.90381C12.3068 8.12279 11.6364 9.77609 11.6364 11.5Z" fill="url(#paint0_linear_19_2455)"/>
<path d="M8 31H28V26.3571C27.9981 24.6338 27.327 22.9817 26.134 21.7631C24.941 20.5446 22.4144 19.8591 20.7273 19.8571H15.2727C13.5856 19.8591 11.059 20.5446 9.86599 21.7631C8.673 22.9817 8.00192 24.6338 8 26.3571V31ZM11.6364 11.5C11.6364 12.7856 11.8462 14.1454 12.5455 15.2143C13.2447 16.2832 14.1099 17.0437 15.2727 17.5357C16.4355 18.0277 18.0071 18.1259 19.2415 17.8751C20.4759 17.6243 21.6098 17.0052 22.4998 16.0962C23.3897 15.1872 23.9958 14.029 24.2414 12.7681C24.4869 11.5072 24.3609 10.2003 23.8792 9.01256C23.3976 7.82484 22.5819 6.80968 21.5354 6.09545C20.489 5.38122 19.2586 5 18 5C16.3123 5 14.6936 5.68482 13.5002 6.90381C12.3068 8.12279 11.6364 9.77609 11.6364 11.5Z" fill="url(#paint1_linear_19_2455)"/>
<defs>
<linearGradient id="paint0_linear_19_2455" x1="27.9312" y1="2.00002" x2="7.90147" y2="2.71352" gradientUnits="userSpaceOnUse">
<stop stop-color="#5970E0"/>
<stop offset="1" stop-color="#1C37B8"/>
</linearGradient>
<linearGradient id="paint1_linear_19_2455" x1="28.9244" y1="2.00002" x2="6.89748" y2="2.86313" gradientUnits="userSpaceOnUse">
<stop stop-color="#5970E0"/>
<stop offset="1" stop-color="#462EDF"/>
</linearGradient>
</defs>
</svg>
