<svg width="22" height="20" viewBox="0 0 22 20" fill="none" xmlns="http://www.w3.org/2000/svg">
<path fill-rule="evenodd" clip-rule="evenodd" d="M10.7996 2C11.0825 2 11.3538 2.10536 11.5538 2.29289C11.7539 2.48043 11.8663 2.73478 11.8663 3V4C11.8663 4.26522 11.7539 4.51957 11.5538 4.70711C11.3538 4.89464 11.0825 5 10.7996 5C10.5167 5 10.2454 4.89464 10.0454 4.70711C9.84531 4.51957 9.73293 4.26522 9.73293 4V3C9.73293 2.73478 9.84531 2.48043 10.0454 2.29289C10.2454 2.10536 10.5167 2 10.7996 2V2ZM15.0663 10C15.0663 11.0609 14.6167 12.0783 13.8166 12.8284C13.0164 13.5786 11.9312 14 10.7996 14C9.66801 14 8.58276 13.5786 7.78261 12.8284C6.98245 12.0783 6.53293 11.0609 6.53293 10C6.53293 8.93913 6.98245 7.92172 7.78261 7.17157C8.58276 6.42143 9.66801 6 10.7996 6C11.9312 6 13.0164 6.42143 13.8166 7.17157C14.6167 7.92172 15.0663 8.93913 15.0663 10V10ZM14.5713 14.95L15.3255 15.657C15.5266 15.8392 15.7961 15.94 16.0758 15.9377C16.3554 15.9354 16.623 15.8302 16.8207 15.6448C17.0185 15.4594 17.1307 15.2086 17.1331 14.9464C17.1355 14.6842 17.028 14.4316 16.8337 14.243L16.0796 13.536C15.8784 13.3538 15.609 13.253 15.3293 13.2553C15.0496 13.2576 14.7821 13.3628 14.5843 13.5482C14.3866 13.7336 14.2744 13.9844 14.2719 14.2466C14.2695 14.5088 14.377 14.7614 14.5713 14.95V14.95ZM16.8327 4.343C17.0326 4.53053 17.145 4.78484 17.145 5.05C17.145 5.31516 17.0326 5.56947 16.8327 5.757L16.0796 6.464C15.9812 6.55951 15.8635 6.63569 15.7334 6.6881C15.6032 6.74051 15.4633 6.7681 15.3216 6.76925C15.18 6.7704 15.0395 6.7451 14.9084 6.69482C14.7774 6.64454 14.6583 6.57029 14.5581 6.4764C14.458 6.3825 14.3788 6.27085 14.3251 6.14795C14.2715 6.02506 14.2445 5.89338 14.2457 5.7606C14.247 5.62782 14.2764 5.4966 14.3323 5.3746C14.3882 5.25259 14.4695 5.14225 14.5713 5.05L15.3255 4.343C15.5255 4.15553 15.7968 4.05021 16.0796 4.05021C16.3624 4.05021 16.6337 4.15553 16.8337 4.343H16.8327ZM18.2663 11C18.5492 11 18.8205 10.8946 19.0205 10.7071C19.2206 10.5196 19.3329 10.2652 19.3329 10C19.3329 9.73478 19.2206 9.48043 19.0205 9.29289C18.8205 9.10536 18.5492 9 18.2663 9H17.1996C16.9167 9 16.6454 9.10536 16.4454 9.29289C16.2453 9.48043 16.1329 9.73478 16.1329 10C16.1329 10.2652 16.2453 10.5196 16.4454 10.7071C16.6454 10.8946 16.9167 11 17.1996 11H18.2663ZM10.7996 15C11.0825 15 11.3538 15.1054 11.5538 15.2929C11.7539 15.4804 11.8663 15.7348 11.8663 16V17C11.8663 17.2652 11.7539 17.5196 11.5538 17.7071C11.3538 17.8946 11.0825 18 10.7996 18C10.5167 18 10.2454 17.8946 10.0454 17.7071C9.84531 17.5196 9.73293 17.2652 9.73293 17V16C9.73293 15.7348 9.84531 15.4804 10.0454 15.2929C10.2454 15.1054 10.5167 15 10.7996 15V15ZM5.5196 6.464C5.61863 6.55691 5.73622 6.63062 5.86564 6.68093C5.99506 6.73124 6.13378 6.75716 6.27389 6.7572C6.41399 6.75725 6.55274 6.73142 6.6822 6.6812C6.81165 6.63098 6.92929 6.55734 7.0284 6.4645C7.1275 6.37166 7.20613 6.26142 7.25979 6.14009C7.31345 6.01876 7.3411 5.8887 7.34115 5.75735C7.3412 5.62601 7.31365 5.49593 7.26008 5.37457C7.20651 5.2532 7.12797 5.14291 7.02893 5.05L6.27373 4.343C6.07256 4.16084 5.80311 4.06005 5.52344 4.06233C5.24376 4.0646 4.97623 4.16977 4.77846 4.35518C4.58069 4.54059 4.46851 4.7914 4.46608 5.0536C4.46365 5.3158 4.57116 5.5684 4.76547 5.757L5.5196 6.464V6.464ZM7.02787 14.95L6.27373 15.657C6.07256 15.8392 5.80311 15.94 5.52344 15.9377C5.24376 15.9354 4.97623 15.8302 4.77846 15.6448C4.58069 15.4594 4.46851 15.2086 4.46608 14.9464C4.46365 14.6842 4.57116 14.4316 4.76547 14.243L5.5196 13.536C5.72077 13.3538 5.99022 13.253 6.26989 13.2553C6.54957 13.2576 6.8171 13.3628 7.01487 13.5482C7.21264 13.7336 7.32482 13.9844 7.32725 14.2466C7.32968 14.5088 7.22217 14.7614 7.02787 14.95V14.95ZM4.3996 11C4.6825 11 4.95381 10.8946 5.15385 10.7071C5.35388 10.5196 5.46627 10.2652 5.46627 10C5.46627 9.73478 5.35388 9.48043 5.15385 9.29289C4.95381 9.10536 4.6825 9 4.3996 9H3.33293C3.05003 9 2.77872 9.10536 2.57869 9.29289C2.37865 9.48043 2.26627 9.73478 2.26627 10C2.26627 10.2652 2.37865 10.5196 2.57869 10.7071C2.77872 10.8946 3.05003 11 3.33293 11H4.3996Z" fill="#2B3E9B"/>
</svg>
