<svg width="40" height="40" viewBox="0 0 40 40" fill="none" xmlns="http://www.w3.org/2000/svg">
<g opacity="0.72">
<path d="M28.8333 20L29.3799 20.4373L29.7298 20L29.3799 19.5627L28.8333 20ZM21.3333 19.3C20.9467 19.3 20.6333 19.6134 20.6333 20C20.6333 20.3866 20.9467 20.7 21.3333 20.7V19.3ZM26.0466 24.604L29.3799 20.4373L28.2867 19.5627L24.9534 23.7294L26.0466 24.604ZM29.3799 19.5627L26.0466 15.396L24.9534 16.2706L28.2867 20.4373L29.3799 19.5627ZM28.8333 19.3H21.3333V20.7H28.8333V19.3Z" fill="#4B516A"/>
<path d="M22.1667 23.2234V23.386C22.1667 24.8989 22.1667 25.6553 21.749 26.1956C21.7125 26.2428 21.6739 26.2884 21.6334 26.3321C21.1691 26.8329 20.4229 26.9573 18.9307 27.206V27.206C15.9012 27.7109 14.3865 27.9634 13.3569 27.1846C13.2688 27.1179 13.1843 27.0464 13.1041 26.9704C12.1667 26.0829 12.1667 24.5473 12.1667 21.476L12.1667 18.524C12.1667 15.4527 12.1667 13.9171 13.1041 13.0296C13.1843 12.9536 13.2688 12.8821 13.3569 12.8154C14.3865 12.0366 15.9017 12.2892 18.9322 12.7943V12.7943C20.4227 13.0427 21.168 13.1669 21.6321 13.6665C21.6735 13.7111 21.7129 13.7576 21.7502 13.8059C22.1667 14.3457 22.1667 15.1011 22.1667 16.6117V16.6117" stroke="#4B516A" stroke-width="1.4" stroke-linejoin="round"/>
</g>
</svg>
