<svg width="27" height="27" viewBox="0 0 27 27" fill="none" xmlns="http://www.w3.org/2000/svg">
<path d="M23.5132 3.59595H2.70459C1.88369 3.59595 1.21826 4.30979 1.21826 5.19041V9.9738C1.21826 10.8544 1.88369 11.5683 2.70459 11.5683H23.5132C24.334 11.5683 24.9995 10.8544 24.9995 9.9738V5.19041C24.9995 4.30979 24.334 3.59595 23.5132 3.59595ZM24.2563 9.9738C24.2563 10.4134 23.923 10.771 23.5132 10.771H2.70459C2.29481 10.771 1.96143 10.4134 1.96143 9.9738V5.19041C1.96143 4.75078 2.29481 4.39318 2.70459 4.39318H23.5132C23.923 4.39318 24.2563 4.75078 24.2563 5.19041V9.9738Z" fill="#151F4E" fill-opacity="0.56"/>
<path d="M24.2563 9.9738C24.2563 10.4134 23.923 10.771 23.5132 10.771H2.70459C2.29481 10.771 1.96143 10.4134 1.96143 9.9738V5.19041C1.96143 4.75078 2.29481 4.39318 2.70459 4.39318H23.5132C23.923 4.39318 24.2563 4.75078 24.2563 5.19041V9.9738Z" fill="#151F4E" fill-opacity="0.56"/>
<path d="M23.5132 14.8319H2.70459C1.88369 14.8319 1.21826 15.5458 1.21826 16.4264V21.2098C1.21826 22.0903 1.88369 22.8042 2.70459 22.8042H23.5132C24.334 22.8042 24.9995 22.0903 24.9995 21.2098V16.4264C24.9995 15.5458 24.334 14.8319 23.5132 14.8319ZM24.2563 21.2098C24.2563 21.6493 23.923 22.007 23.5132 22.007H2.70459C2.29481 22.007 1.96143 21.6493 1.96143 21.2098V16.4264C1.96143 15.9867 2.29481 15.6291 2.70459 15.6291H23.5132C23.923 15.6291 24.2563 15.9867 24.2563 16.4264V21.2098Z" fill="#151F4E" fill-opacity="0.56"/>
<path d="M24.2563 21.2098C24.2563 21.6493 23.923 22.007 23.5132 22.007H2.70459C2.29481 22.007 1.96143 21.6493 1.96143 21.2098V16.4264C1.96143 15.9867 2.29481 15.6291 2.70459 15.6291H23.5132C23.923 15.6291 24.2563 15.9867 24.2563 16.4264V21.2098Z" fill="#151F4E" fill-opacity="0.56"/>
<path d="M11.6226 7.18909H4.19091C3.98843 7.18909 3.82442 7.36504 3.82442 7.58228C3.82442 7.79949 3.98843 7.97544 4.19091 7.97544H11.6226C11.825 7.97544 11.989 7.79949 11.989 7.58228C11.989 7.36504 11.825 7.18909 11.6226 7.18909Z" fill="white" stroke="white" stroke-width="0.6"/>
<path d="M20.912 8.77721C21.5275 8.77721 22.0264 8.24197 22.0264 7.58172C22.0264 6.92147 21.5275 6.38623 20.912 6.38623C20.2965 6.38623 19.7976 6.92147 19.7976 7.58172C19.7976 8.24197 20.2965 8.77721 20.912 8.77721Z" fill="white" stroke="white" stroke-width="0.6"/>
<path d="M11.6226 18.4248H4.19091C3.98843 18.4248 3.82442 18.6008 3.82442 18.818C3.82442 19.0352 3.98843 19.2112 4.19091 19.2112H11.6226C11.825 19.2112 11.989 19.0352 11.989 18.818C11.989 18.6008 11.825 18.4248 11.6226 18.4248Z" fill="white" stroke="white" stroke-width="0.6"/>
<path d="M20.912 20.0134C21.5275 20.0134 22.0264 19.4782 22.0264 18.8179C22.0264 18.1577 21.5275 17.6224 20.912 17.6224C20.2965 17.6224 19.7976 18.1577 19.7976 18.8179C19.7976 19.4782 20.2965 20.0134 20.912 20.0134Z" fill="white" stroke="white" stroke-width="0.6"/>
</svg>
