<svg width="27" height="27" viewBox="0 0 27 27" fill="none" xmlns="http://www.w3.org/2000/svg">
<path d="M23.5137 3.59595H2.70508C1.88418 3.59595 1.21875 4.30979 1.21875 5.19041V9.9738C1.21875 10.8544 1.88418 11.5683 2.70508 11.5683H23.5137C24.3345 11.5683 25 10.8544 25 9.9738V5.19041C25 4.30979 24.3345 3.59595 23.5137 3.59595ZM24.2568 9.9738C24.2568 10.4134 23.9235 10.771 23.5137 10.771H2.70508C2.2953 10.771 1.96191 10.4134 1.96191 9.9738V5.19041C1.96191 4.75078 2.2953 4.39318 2.70508 4.39318H23.5137C23.9235 4.39318 24.2568 4.75078 24.2568 5.19041V9.9738Z" fill="white" fill-opacity="0.56"/>
<path d="M24.2568 9.9738C24.2568 10.4134 23.9235 10.771 23.5137 10.771H2.70508C2.2953 10.771 1.96191 10.4134 1.96191 9.9738V5.19041C1.96191 4.75078 2.2953 4.39318 2.70508 4.39318H23.5137C23.9235 4.39318 24.2568 4.75078 24.2568 5.19041V9.9738Z" fill="white" fill-opacity="0.56"/>
<path d="M23.5137 14.8319H2.70508C1.88418 14.8319 1.21875 15.5458 1.21875 16.4264V21.2098C1.21875 22.0903 1.88418 22.8042 2.70508 22.8042H23.5137C24.3345 22.8042 25 22.0903 25 21.2098V16.4264C25 15.5458 24.3345 14.8319 23.5137 14.8319ZM24.2568 21.2098C24.2568 21.6493 23.9235 22.007 23.5137 22.007H2.70508C2.2953 22.007 1.96191 21.6493 1.96191 21.2098V16.4264C1.96191 15.9867 2.2953 15.6291 2.70508 15.6291H23.5137C23.9235 15.6291 24.2568 15.9867 24.2568 16.4264V21.2098Z" fill="white" fill-opacity="0.56"/>
<path d="M24.2568 21.2098C24.2568 21.6493 23.9235 22.007 23.5137 22.007H2.70508C2.2953 22.007 1.96191 21.6493 1.96191 21.2098V16.4264C1.96191 15.9867 2.2953 15.6291 2.70508 15.6291H23.5137C23.9235 15.6291 24.2568 15.9867 24.2568 16.4264V21.2098Z" fill="white" fill-opacity="0.56"/>
<path d="M11.623 7.18909H4.1914C3.98892 7.18909 3.82491 7.36504 3.82491 7.58228C3.82491 7.79949 3.98892 7.97544 4.1914 7.97544H11.623C11.8255 7.97544 11.9895 7.79949 11.9895 7.58228C11.9895 7.36504 11.8255 7.18909 11.623 7.18909Z" fill="white" stroke="black" stroke-width="0.6"/>
<path d="M20.9125 8.77721C21.528 8.77721 22.0269 8.24197 22.0269 7.58172C22.0269 6.92147 21.528 6.38623 20.9125 6.38623C20.297 6.38623 19.7981 6.92147 19.7981 7.58172C19.7981 8.24197 20.297 8.77721 20.9125 8.77721Z" fill="white" stroke="black" stroke-width="0.6"/>
<path d="M11.623 18.4248H4.1914C3.98892 18.4248 3.82491 18.6008 3.82491 18.818C3.82491 19.0352 3.98892 19.2112 4.1914 19.2112H11.623C11.8255 19.2112 11.9895 19.0352 11.9895 18.818C11.9895 18.6008 11.8255 18.4248 11.623 18.4248Z" fill="white" stroke="black" stroke-width="0.6"/>
<path d="M20.9125 20.0134C21.528 20.0134 22.0269 19.4782 22.0269 18.8179C22.0269 18.1577 21.528 17.6224 20.9125 17.6224C20.297 17.6224 19.7981 18.1577 19.7981 18.8179C19.7981 19.4782 20.297 20.0134 20.9125 20.0134Z" fill="white" stroke="black" stroke-width="0.6"/>
</svg>
