<svg width="27" height="27" viewBox="0 0 24 24" fill="none" xmlns="http://www.w3.org/2000/svg">
<path d="M12 21.75C6.62391 21.75 2.25 17.3761 2.25 12C2.25 6.62391 6.62391 2.25 12 2.25C17.3761 2.25 21.75 6.62391 21.75 12C21.75 17.3761 17.3761 21.75 12 21.75ZM12 3.75C7.45312 3.75 3.75 7.45312 3.75 12C3.75 16.5469 7.45312 20.25 12 20.25C16.5469 20.25 20.25 16.5492 20.25 12C20.25 7.45078 16.5492 3.75 12 3.75Z" fill="#AFB2C0"/>
<path d="M15.172 13.6875C14.3564 13.6875 13.5684 13.3256 12.953 12.6689C12.3442 12.0086 11.9802 11.1595 11.9217 10.2633C11.8528 9.29297 12.1505 8.4 12.7598 7.74984C13.3692 7.09969 14.2209 6.75 15.172 6.75C16.1161 6.75 16.9706 7.10719 17.5781 7.75594C18.1856 8.40469 18.4908 9.30281 18.4219 10.2642C18.3623 11.1599 17.9984 12.0083 17.3906 12.6689C16.7747 13.3256 15.9872 13.6875 15.172 13.6875ZM7.67906 13.845C6.28406 13.845 5.05734 12.5555 4.94484 10.9702C4.88719 10.1583 5.13937 9.40781 5.65594 8.85703C6.1725 8.30625 6.885 8.01328 7.67859 8.01328C8.47219 8.01328 9.18422 8.31516 9.6975 8.86359C10.2108 9.41203 10.4709 10.1677 10.4123 10.973C10.298 12.5559 9.07172 13.845 7.67906 13.845ZM19.7048 16.6537C19.6303 16.4334 19.4489 16.1986 19.0852 15.9759C17.9855 15.3042 16.6327 14.9489 15.172 14.9489C13.7391 14.9489 12.3487 15.3192 11.2566 15.9919C10.0261 16.7498 9.19922 17.8552 8.86594 19.1878C8.78719 19.5014 8.67234 20.085 8.79516 20.4117C10.766 21.1612 12.9373 21.1956 14.9309 20.5089C16.9245 19.8222 18.6141 18.4579 19.7053 16.6537H19.7048ZM7.67016 18.8142C8.00156 17.4919 8.70703 16.3894 9.80156 15.4978C9.85331 15.4551 9.89265 15.3993 9.9155 15.3363C9.93834 15.2732 9.94386 15.2052 9.93146 15.1392C9.91906 15.0733 9.8892 15.0119 9.845 14.9615C9.8008 14.911 9.74387 14.8733 9.68016 14.8523C9.11766 14.6728 8.47547 14.5767 7.67906 14.5767C6.5625 14.5767 5.37703 14.8791 4.485 15.4284C4.23187 15.5845 3.98344 15.6445 3.79219 15.698C4.56003 17.395 5.8334 18.8135 7.43812 19.7592L7.52203 19.7527C7.54038 19.4357 7.59 19.1214 7.67016 18.8142Z" fill="#AFB2C0"/>
</svg>
